# xmcd
#
# Track frame offsets: 
#        150
#        20135
#        37301
#        49159
#        67000
#        86873
#        105519
#        117200
#        135860
#        151596
#        163830
#        179824
#
# Disc length: 2559 seconds
#
# Revision: 0
# Processed by: cddbd v1.5.2PL0 Copyright (c) Steve Scherf et al.
# Submitted via: ExactAudioCopyFreeDBPlugin 1.0
#
DISCID=a609fd0c
DTITLE=B.J. Thomas - Fireside Christmas
DYEAR=2001
DGENRE=Country
TTITLE0=The First Noel
TTITLE1=Silent Night
TTITLE2=Away In The Manger
TTITLE3=Oh  Come All Ye Faithful
TTITLE4=What Child Is This?
TTITLE5=Oh Holy Night
TTITLE6=It Came Upon A Midnight Clear
TTITLE7=Joy To The World
TTITLE8=Oh Little Town of Bethlehem
TTITLE9=Hark The Herald Angels Sing
TTITLE10=Go Tell It On The Mountain
TTITLE11=God Rest Ye Merry Gentlemen
EXTD=
EXTT0=
EXTT1=
EXTT2=
EXTT3=
EXTT4=
EXTT5=
EXTT6=
EXTT7=
EXTT8=
EXTT9=
EXTT10=
EXTT11=
PLAYORDER=
